<?xml version="1.0" encoding="UTF-8" standalone="no"?>
<!-- Created with Inkscape (http://www.inkscape.org/) -->

<svg
   xmlns:dc="http://purl.org/dc/elements/1.1/"
   xmlns:cc="http://creativecommons.org/ns#"
   xmlns:rdf="http://www.w3.org/1999/02/22-rdf-syntax-ns#"
   xmlns:svg="http://www.w3.org/2000/svg"
   xmlns="http://www.w3.org/2000/svg"
   xmlns:sodipodi="http://sodipodi.sourceforge.net/DTD/sodipodi-0.dtd"
   xmlns:inkscape="http://www.inkscape.org/namespaces/inkscape"
   width="1178.2977"
   height="422.29437"
   id="svg2"
   version="1.1"
   inkscape:version="0.48.4 r9939"
   sodipodi:docname="Logo.svg">
  <defs
     id="defs4" />
  <sodipodi:namedview
     id="base"
     pagecolor="#ffffff"
     bordercolor="#666666"
     borderopacity="1.0"
     inkscape:pageopacity="0.0"
     inkscape:pageshadow="2"
     inkscape:zoom="0.49497475"
     inkscape:cx="798.5122"
     inkscape:cy="131.34061"
     inkscape:document-units="px"
     inkscape:current-layer="layer1"
     showgrid="false"
     fit-margin-top="10"
     fit-margin-left="10"
     fit-margin-right="10"
     fit-margin-bottom="10"
     inkscape:window-width="1600"
     inkscape:window-height="848"
     inkscape:window-x="-8"
     inkscape:window-y="-8"
     inkscape:window-maximized="1" />
  <metadata
     id="metadata7">
    <rdf:RDF>
      <cc:Work
         rdf:about="">
        <dc:format>image/svg+xml</dc:format>
        <dc:type
           rdf:resource="http://purl.org/dc/dcmitype/StillImage" />
        <dc:title />
      </cc:Work>
    </rdf:RDF>
  </metadata>
  <g
     inkscape:label="Layer 1"
     inkscape:groupmode="layer"
     id="layer1"
     transform="translate(-101.43419,-307.1351)">
    <path
       style="fill:#000000"
       d="m 360.01907,315.70482 c -92.18422,0.62946 -110.2502,17.13815 -120.78125,20.375 -36.26505,11.14651 -104.05992,62.3114 -122.34375,130.65625 -8.28366,30.96427 -6.97969,82.46352 2.8125,111.53125 21.51438,63.86442 71.81945,112.60525 138.03791,130.80822 10.66739,2.93239 31.33782,6.09331 44.20321,8.3742 12.86539,2.2809 68.18299,1.96485 68.18299,1.96485 0,0 -43.34772,-4.25296 -80.18855,-14.53168 -36.84082,-10.27872 -73.87034,-33.27729 -102.30234,-82.96521 -28.41175,-49.65253 -20.70968,-110.90206 3.53553,-162.71288 20.83921,-44.53238 107.17964,-81.33588 133.54363,-84.96007 0.0771,13.86208 0.30012,-10.23824 0.30012,38.27257 0,48.65515 -0.41608,57.77459 -0.41608,57.77459 l -37.88372,0.16846 -0.48648,37.34581 83.4345,0.97676 -0.30442,-93.85937 c -0.2672,-82.38384 1.08912,1.84428 -0.1875,-99.21875 -3.13018,-0.0137 -6.18257,-0.0203 -9.15625,0 z"
       id="path2998"
       inkscape:connector-curvature="0"
       sodipodi:nodetypes="csssszczsscsccccscsc" />
    <path
       style="fill:#000000"
       d="m 1260.0191,315.70482 c -92.1843,0.62946 -110.2502,17.13815 -120.7813,20.375 -36.265,11.14651 -104.0599,62.3114 -122.3437,130.65625 -8.2837,30.96427 -6.9797,82.46352 2.8125,111.53125 21.5143,63.86442 71.8194,112.60525 138.0379,130.80822 10.6674,2.93239 31.3378,6.09331 44.2032,8.3742 12.8654,2.2809 68.183,1.96485 68.183,1.96485 0,0 -43.3477,-4.25296 -80.1886,-14.53168 -36.8408,-10.27872 -73.8703,-33.27729 -102.3023,-82.96521 -28.4118,-49.65253 -20.7097,-110.90206 3.5355,-162.71288 20.8392,-44.53238 107.1797,-81.33588 133.5436,-84.96007 0.077,13.86208 0.3002,-10.23824 0.3002,38.27257 0,48.65515 -0.4161,57.77459 -0.4161,57.77459 l -37.8837,0.16846 -0.4865,37.34581 83.4345,0.97676 -0.3044,-93.85937 c -0.2672,-82.38384 1.0891,1.84428 -0.1875,-99.21875 -3.1302,-0.0137 -6.1826,-0.0203 -9.1563,0 z"
       id="path2998-1"
       inkscape:connector-curvature="0"
       sodipodi:nodetypes="csssszczsscsccccscsc" />
    <path
       style="fill:#000000"
       d="M 960.01907,719.4166 C 867.83485,718.78714 849.76887,702.27845 839.23782,699.0416 802.97277,687.89509 735.1779,636.7302 716.89407,568.38535 c -8.28366,-30.96427 -6.97969,-82.46352 2.8125,-111.53125 21.51438,-63.86442 71.81945,-112.60525 138.03791,-130.80822 10.66739,-2.93239 31.33782,-6.09331 44.20321,-8.3742 12.86539,-2.2809 68.18299,-1.96485 68.18299,-1.96485 0,0 -43.34772,4.25296 -80.18855,14.53168 -36.84082,10.27872 -73.87034,33.27729 -102.30234,82.96521 -28.41175,49.65253 -20.70968,110.90206 3.53553,162.71288 20.83921,44.53238 107.17964,81.33588 133.54363,84.96007 0.0771,-13.86208 0.30012,10.23824 0.30012,-38.27257 0,-48.65515 -0.41608,-57.77459 -0.41608,-57.77459 l -37.88372,-0.16846 -0.48648,-37.34581 83.4345,-0.97676 -0.30442,93.85937 c -0.2672,82.38384 1.08912,-1.84428 -0.1875,99.21875 -3.13018,0.0137 -6.18257,0.0203 -9.15625,0 z"
       id="path2998-7"
       inkscape:connector-curvature="0"
       sodipodi:nodetypes="csssszczsscsccccscsc" />
    <path
       style="fill:#000000"
       d="m 421.5458,315.70482 c 92.18422,0.62946 110.2502,17.13815 120.78125,20.375 36.26505,11.14651 104.05992,62.3114 122.34375,130.65625 8.28366,30.96427 6.9797,82.46352 -2.8125,111.53125 -21.51438,63.86442 -71.81945,112.60525 -138.03791,130.80822 -10.66739,2.93239 -31.33782,6.09331 -44.20321,8.3742 -12.86539,2.2809 -68.18299,1.96485 -68.18299,1.96485 0,0 43.34772,-4.25296 80.18855,-14.53168 36.84082,-10.27872 73.87034,-33.27729 102.30234,-82.96521 28.41175,-49.65253 20.70968,-110.90206 -3.53553,-162.71288 -20.83921,-44.53238 -107.17964,-81.33588 -133.54363,-84.96007 -0.0771,13.86208 -0.30012,-10.23824 -0.30012,38.27257 0,48.65515 0.41608,57.77459 0.41608,57.77459 l 37.88372,0.16846 0.48648,37.34581 -83.4345,0.97676 0.30442,-93.85937 c 0.2672,-82.38384 -1.08912,1.84428 0.1875,-99.21875 3.13018,-0.0137 6.18257,-0.0203 9.15625,0 z"
       id="path2998-4"
       inkscape:connector-curvature="0"
       sodipodi:nodetypes="csssszczsscsccccscsc" />
  </g>
</svg>
